<?xml version="1.0" encoding="UTF-8" standalone="no"?>
<svg
   width="16"
   height="16"
   viewBox="0 0 24 24"
   stroke-width="2"
   stroke="currentColor"
   fill="none"
   stroke-linecap="round"
   stroke-linejoin="round"
   version="1.1"
   id="svg3"
   sodipodi:docname="telegram.svg"
   xml:space="preserve"
   inkscape:version="1.3.2 (091e20e, 2023-11-25)"
   xmlns:inkscape="http://www.inkscape.org/namespaces/inkscape"
   xmlns:sodipodi="http://sodipodi.sourceforge.net/DTD/sodipodi-0.dtd"
   xmlns="http://www.w3.org/2000/svg"
   xmlns:svg="http://www.w3.org/2000/svg"><defs
     id="defs3" /><sodipodi:namedview
     id="namedview3"
     pagecolor="#ffffff"
     bordercolor="#000000"
     borderopacity="0.25"
     inkscape:showpageshadow="2"
     inkscape:pageopacity="0.0"
     inkscape:pagecheckerboard="0"
     inkscape:deskcolor="#d1d1d1"
     inkscape:zoom="20.127128"
     inkscape:cx="9.5890483"
     inkscape:cy="6.334734"
     inkscape:window-width="1920"
     inkscape:window-height="1172"
     inkscape:window-x="0"
     inkscape:window-y="43"
     inkscape:window-maximized="0"
     inkscape:current-layer="svg3" /><path
     stroke="none"
     d="M0 0h24v24H0z"
     fill="none"
     id="path1" /><g
     id="g3"
     transform="matrix(0.09909166,0,0,0.09909166,0.09909166,0.09909166)"><circle
       fill-rule="evenodd"
       clip-rule="evenodd"
       fill="url(#Oval_1_)"
       cx="120.1"
       cy="120.1"
       r="120.1"
       id="circle2" /><path
       fill-rule="evenodd"
       clip-rule="evenodd"
       fill="#ffffff"
       d="m 54.3,118.8 c 35,-15.2 58.3,-25.3 70,-30.2 33.3,-13.9 40.3,-16.3 44.8,-16.4 1,0 3.2,0.2 4.7,1.4 1.2,1 1.5,2.3 1.7,3.3 0.2,1 0.4,3.1 0.2,4.7 -1.8,19 -9.6,65.1 -13.6,86.3 -1.7,9 -5,12 -8.2,12.3 -7,0.6 -12.3,-4.6 -19,-9 -10.6,-6.9 -16.5,-11.2 -26.8,-18 -11.9,-7.8 -4.2,-12.1 2.6,-19.1 1.8,-1.8 32.5,-29.8 33.1,-32.3 0.1,-0.3 0.1,-1.5 -0.6,-2.1 -0.7,-0.6 -1.7,-0.4 -2.5,-0.2 -1.1,0.2 -17.9,11.4 -50.6,33.5 -4.8,3.3 -9.1,4.9 -13,4.8 -4.3,-0.1 -12.5,-2.4 -18.7,-4.4 -7.5,-2.4 -13.5,-3.7 -13,-7.9 0.3,-2.2 3.3,-4.4 8.9,-6.7 z"
       id="path2" /></g></svg>
